<svg width="20" height="16" viewBox="0 0 20 16" fill="none" xmlns="http://www.w3.org/2000/svg">
<path d="M16.6987 12.0475C18.825 10.15 20 8 20 8C20 8 16.25 1.125 9.99995 1.125C8.79944 1.12913 7.61252 1.37928 6.51245 1.86L7.47495 2.82375C8.28425 2.52894 9.13864 2.3771 9.99995 2.375C12.65 2.375 14.8487 3.835 16.46 5.44625C17.2354 6.22586 17.9306 7.08141 18.535 8C18.4625 8.10875 18.3825 8.22875 18.2912 8.36C17.8725 8.96 17.2537 9.76 16.46 10.5538C16.2537 10.76 16.0387 10.9638 15.8137 11.1613L16.6987 12.0475Z" fill="#8D4337"/>
<path d="M14.1212 9.46995C14.4001 8.68976 14.4518 7.84639 14.2702 7.03798C14.0885 6.22957 13.6811 5.48936 13.0952 4.90348C12.5093 4.3176 11.7691 3.91013 10.9607 3.72849C10.1523 3.54685 9.3089 3.59851 8.5287 3.87745L9.55745 4.9062C10.0378 4.83745 10.5276 4.88151 10.988 5.03491C11.4484 5.18831 11.8668 5.44682 12.2099 5.78997C12.5531 6.13312 12.8116 6.55147 12.965 7.01187C13.1184 7.47227 13.1625 7.96207 13.0937 8.44245L14.1212 9.46995ZM10.4425 11.0937L11.47 12.1212C10.6898 12.4001 9.84639 12.4518 9.03798 12.2702C8.22957 12.0885 7.48936 11.6811 6.90348 11.0952C6.3176 10.5093 5.91013 9.76909 5.72849 8.96068C5.54685 8.15227 5.59851 7.3089 5.87745 6.5287L6.9062 7.55745C6.83745 8.03784 6.88151 8.52764 7.03491 8.98804C7.18831 9.44844 7.44682 9.86679 7.78997 10.2099C8.13312 10.5531 8.55147 10.8116 9.01187 10.965C9.47227 11.1184 9.96207 11.1625 10.4425 11.0937Z" fill="#8D4337"/>
<path d="M4.1875 4.83762C3.9625 5.03762 3.74625 5.24012 3.54 5.44637C2.76456 6.22598 2.0694 7.08153 1.465 8.00012L1.70875 8.36012C2.1275 8.96012 2.74625 9.76012 3.54 10.5539C5.15125 12.1651 7.35125 13.6251 10 13.6251C10.895 13.6251 11.7375 13.4589 12.525 13.1751L13.4875 14.1401C12.3874 14.6208 11.2005 14.8709 10 14.8751C3.75 14.8751 0 8.00012 0 8.00012C0 8.00012 1.17375 5.84887 3.30125 3.95262L4.18625 4.83887L4.1875 4.83762ZM17.0575 15.9426L2.0575 0.942617L2.9425 0.0576172L17.9425 15.0576L17.0575 15.9426Z" fill="#8D4337"/>
</svg>
